<svg width="24" height="24" viewBox="0 0 24 24" fill="none" xmlns="http://www.w3.org/2000/svg">
<path d="M17 7.13193V6.61204C17 4.46614 17 3.3932 16.3104 2.79511C15.6208 2.19703 14.5586 2.34877 12.4343 2.65224L8.15147 3.26408C5.69534 3.61495 4.46728 3.79039 3.73364 4.63628C3 5.48217 3 6.72271 3 9.20377V14.7962C3 17.2773 3 18.5178 3.73364 19.3637C4.46728 20.2096 5.69534 20.385 8.15147 20.7359L12.4343 21.3478C14.5586 21.6512 15.6208 21.803 16.3104 21.2049C17 20.6068 17 19.5339 17 17.388V17.066" stroke="#0049FF" stroke-width="2"/>
<path d="M8 12L7.21913 11.3753L6.71938 12L7.21913 12.6247L8 12ZM20 13C20.5523 13 21 12.5523 21 12C21 11.4477 20.5523 11 20 11V13ZM11.2191 6.3753L7.21913 11.3753L8.78087 12.6247L12.7809 7.6247L11.2191 6.3753ZM7.21913 12.6247L11.2191 17.6247L12.7809 16.3753L8.78087 11.3753L7.21913 12.6247ZM8 13H20V11H8V13Z" fill="#0049FF"/>
</svg>
